<svg width="512" height="512" viewBox="0 0 512 512" fill="none" xmlns="http://www.w3.org/2000/svg">
<defs>
<!-- Gradiente puente con bordes oscuros -->
<linearGradient id="bridgeGrad" x1="0%" y1="0%" x2="0%" y2="100%">
<stop offset="0%" stop-color="#1E293B"/>
<stop offset="15%" stop-color="#3B82F6"/>
<stop offset="50%" stop-color="#60A5FA"/>
<stop offset="85%" stop-color="#3B82F6"/>
<stop offset="100%" stop-color="#1E293B"/>
</linearGradient>
<linearGradient id="paint1_linear" x1="12" y1="0" x2="83" y2="147" gradientUnits="userSpaceOnUse">
<stop stop-color="#3B82F6"/>
<stop offset="0.5" stop-color="#60A5FA"/>
<stop offset="1" stop-color="#3B82F6"/>
</linearGradient>
<linearGradient id="paint2_linear" x1="246" y1="0" x2="172" y2="147" gradientUnits="userSpaceOnUse">
<stop stop-color="#3B82F6"/>
<stop offset="0.5" stop-color="#60A5FA"/>
<stop offset="1" stop-color="#3B82F6"/>
</linearGradient>
<filter id="filter0_f" x="196.268" y="14.25" width="32.2188" height="26.8438" filterUnits="userSpaceOnUse" color-interpolation-filters="sRGB">
<feFlood flood-opacity="0" result="BackgroundImageFix"/>
<feBlend mode="normal" in="SourceGraphic" in2="BackgroundImageFix" result="shape"/>
<feGaussianBlur stdDeviation="4" result="effect1_foregroundBlur"/>
</filter>
<filter id="filter1_f" x="69.0943" y="55.8333" width="24.25" height="21" filterUnits="userSpaceOnUse" color-interpolation-filters="sRGB">
<feFlood flood-opacity="0" result="BackgroundImageFix"/>
<feBlend mode="normal" in="SourceGraphic" in2="BackgroundImageFix" result="shape"/>
<feGaussianBlur stdDeviation="4" result="effect1_foregroundBlur"/>
</filter>
<filter id="filter2_f" x="151.594" y="55.8333" width="24.25" height="21" filterUnits="userSpaceOnUse" color-interpolation-filters="sRGB">
<feFlood flood-opacity="0" result="BackgroundImageFix"/>
<feBlend mode="normal" in="SourceGraphic" in2="BackgroundImageFix" result="shape"/>
<feGaussianBlur stdDeviation="4" result="effect1_foregroundBlur"/>
</filter>
<filter id="filter3_f" x="111.217" y="7" width="29.0391" height="25.0078" filterUnits="userSpaceOnUse" color-interpolation-filters="sRGB">
<feFlood flood-opacity="0" result="BackgroundImageFix"/>
<feBlend mode="normal" in="SourceGraphic" in2="BackgroundImageFix" result="shape"/>
<feGaussianBlur stdDeviation="4" result="effect1_foregroundBlur"/>
</filter>
</defs>

<g transform="translate(2, 106) scale(2.0)">
<!-- Puente central con gradiente oscuro arriba/abajo -->
<path d="M217.532 3H39.9068C32.8997 3 27.2193 5.676 27.2193 8.97701V62.023C27.2193 65.324 32.8997 68 39.9068 68H217.532C224.539 68 230.219 65.324 230.219 62.023V8.97701C230.219 5.676 224.539 3 217.532 3Z" fill="url(#bridgeGrad)" stroke="#2563EB" stroke-width="3"/>

<!-- Grip izquierdo -->
<path d="M7.83849 52.537C8.82343 41.2791 12.3412 30.2427 17.5476 19.3541L22.754 8.46554C27.4351 3.58117 36.075 2.06824 47.895 3.10236L42.1824 68.3983L83.5526 72.0178L83.0929 77.2715C82.3707 85.5273 80.8041 93.7092 79.2375 101.891L76.564 113.001C75.1287 119.682 72.9148 125.539 70.7666 130.645L67.7741 135.677C64.9129 139.208 61.2075 142.665 56.789 144.547C52.3706 146.43 48.0835 146.811 43.9277 145.691L33.9275 143.303C29.9031 140.683 26.8542 136.634 24.7153 131.91L21.1505 124.035C17.5857 116.16 14.0865 107.535 12.3416 98.3073L9.94941 86.754C7.94184 80.5281 6.0656 72.8013 6.72223 65.296L7.83849 52.537Z" fill="url(#paint1_linear)" stroke="#2563EB" stroke-width="3"/>
<!-- Línea gris superior grip izquierdo -->
<path d="M7.83849 52.537C8.82343 41.2791 12.3412 30.2427 17.5476 19.3541L22.754 8.46554C27.4351 3.58117 36.075 2.06824 47.895 3.10236" stroke="#475569" stroke-width="5" stroke-linecap="round" fill="none" opacity="0.5"/>
<!-- Sombra inferior grip izquierdo -->
<ellipse cx="48" cy="140" rx="15" ry="8" fill="#475569" opacity="0.75"/>

<!-- Grip derecho -->
<path d="M245.692 53.1161L246.814 65.9404C247.474 73.4842 245.667 81.2438 243.727 87.4947L241.427 99.0982C239.751 108.367 236.364 117.025 232.911 124.928L229.459 132.832C227.387 137.574 224.427 141.634 220.512 144.257L210.773 146.629C206.726 147.743 202.547 147.349 198.237 145.445C193.926 143.542 190.306 140.058 187.508 136.502L184.578 131.437C182.471 126.3 180.298 120.409 178.881 113.692L176.246 102.52C174.698 94.2942 173.149 86.068 172.423 77.7699L171.961 72.4892L212.267 68.963L206.525 3.33233C218.041 2.32483 226.464 3.8683 231.039 8.7891L236.142 19.7449C241.245 30.7007 244.702 41.8004 245.692 53.1161Z" fill="url(#paint2_linear)" stroke="#2563EB" stroke-width="3"/>
<!-- Línea gris superior grip derecho -->
<path d="M206.525 3.33233C218.041 2.32483 226.464 3.8683 231.039 8.7891L236.142 19.7449C241.245 30.7007 244.702 41.8004 245.692 53.1161" stroke="#475569" stroke-width="5" stroke-linecap="round" fill="none" opacity="0.5"/>
<!-- Sombra inferior grip derecho -->
<ellipse cx="207" cy="140" rx="15" ry="8" fill="#475569" opacity="0.75"/>

<!-- Triggers L/R -->
<path d="M62.1982 1.12245H28.8825C25.2025 1.12245 22.2193 4.13766 22.2193 7.85712C22.2193 11.5766 25.2025 14.5918 28.8825 14.5918H62.1982C65.8782 14.5918 68.8614 11.5766 68.8614 7.85712C68.8614 4.13766 65.8782 1.12245 62.1982 1.12245Z" fill="#1E293B" stroke="#60A5FA" stroke-width="2"/>
<path d="M43.3355 11V3.72727H44.8732V9.73224H47.9911V11H43.3355Z" fill="#FCD34D"/>
<path d="M226.556 1.12245H193.24C189.56 1.12245 186.577 4.13766 186.577 7.85712C186.577 11.5766 189.56 14.5918 193.24 14.5918H226.556C230.236 14.5918 233.219 11.5766 233.219 7.85712C233.219 4.13766 230.236 1.12245 226.556 1.12245Z" fill="#1E293B" stroke="#60A5FA" stroke-width="2"/>
<path d="M207.249 11V3.72727H210.118C210.668 3.72727 211.136 3.82552 211.525 4.02202C211.915 4.21615 212.212 4.49195 212.416 4.84943C212.622 5.20455 212.725 5.6224 212.725 6.10298C212.725 6.58594 212.621 7.00142 212.412 7.34943C212.204 7.69508 211.902 7.96023 211.507 8.14489C211.114 8.32955 210.638 8.42188 210.079 8.42188H208.158V7.18608H209.831C210.124 7.18608 210.368 7.14583 210.562 7.06534C210.756 6.98485 210.901 6.86411 210.996 6.70312C211.093 6.54214 211.141 6.34209 211.141 6.10298C211.141 5.86151 211.093 5.65791 210.996 5.49219C210.901 5.32647 210.755 5.20099 210.559 5.11577C210.365 5.02817 210.12 4.98438 209.824 4.98438H208.787V11H207.249ZM211.177 7.69034L212.984 11H211.287L209.518 7.69034H211.177Z" fill="#FCD34D"/>

<!-- D-Pad -->
<path d="M39.1783 29.168V35.0078H48.3775V29.168L45.6177 28H41.938L39.1783 29.168Z" fill="#1E293B" stroke="#94A3B8" stroke-width="1.5"/>
<path d="M39.1783 42.0156V47.8555H48.3775V42.0156H45.6177H41.938H39.1783ZM45.6177 47.8555V49.0234H41.938V47.8555H45.6177Z" fill="#1E293B" stroke="#94A3B8" stroke-width="1.5"/>
<path d="M29.0591 35.5918H38.2584V41.4316H29.0591L27.2193 39.6797V37.3438L29.0591 35.5918Z" fill="#1E293B" stroke="#94A3B8" stroke-width="1.5"/>
<path d="M49.2974 35.5918H58.4966L60.3365 37.3438V39.6797L58.4966 41.4316H49.2974V35.5918Z" fill="#1E293B" stroke="#94A3B8" stroke-width="1.5"/>
<path d="M43.7779 40.2637C45.3021 40.2637 46.5377 39.4793 46.5377 38.5117C46.5377 37.5441 45.3021 36.7598 43.7779 36.7598C42.2537 36.7598 41.0181 37.5441 41.0181 38.5117C41.0181 39.4793 42.2537 40.2637 43.7779 40.2637Z" fill="#334155"/>

<!-- Botones ABXY -->
<g filter="url(#filter0_f)">
<path d="M212.377 32.3438C216.442 32.3438 219.737 30.2521 219.737 27.6719C219.737 25.0917 216.442 23 212.377 23C208.313 23 205.018 25.0917 205.018 27.6719C205.018 30.2521 208.313 32.3438 212.377 32.3438Z" fill="#FCD34D" stroke="#F59E0B" stroke-width="1.5"/>
</g>
<path d="M212.377 32.3438C216.442 32.3438 219.737 30.2521 219.737 27.6719C219.737 25.0917 216.442 23 212.377 23C208.313 23 205.018 25.0917 205.018 27.6719C205.018 30.2521 208.313 32.3438 212.377 32.3438Z" fill="#FCD34D" stroke="#F59E0B" stroke-width="1.5"/>
<path d="M208.96 24.8952H210.683L212.341 28.0273H212.412L214.07 24.8952H215.793L213.14 29.5969V32.168H211.613V29.5969L208.96 24.8952Z" fill="#1E293B"/>
<path d="M198.579 41.1035C202.643 41.1035 205.938 39.0118 205.938 36.4316C205.938 33.8514 202.643 31.7598 198.579 31.7598C194.514 31.7598 191.219 33.8514 191.219 36.4316C191.219 39.0118 194.514 41.1035 198.579 41.1035Z" fill="#60A5FA" stroke="#3B82F6" stroke-width="1.5"/>
<path d="M197.078 33.071L198.545 35.5497H198.602L200.075 33.071H201.812L199.593 36.7074L201.862 40.3438H200.093L198.602 37.8615H198.545L197.053 40.3438H195.292L197.568 36.7074L195.335 33.071H197.078Z" fill="white"/>
<path d="M226.176 41.1035C230.241 41.1035 233.536 39.0118 233.536 36.4316C233.536 33.8514 230.241 31.7598 226.176 31.7598C222.112 31.7598 218.817 33.8514 218.817 36.4316C218.817 39.0118 222.112 41.1035 226.176 41.1035Z" fill="#94A3B8" stroke="#64748B" stroke-width="1.5"/>
<path d="M223.503 40.3438V33.071H226.415C226.95 33.071 227.396 33.1503 227.753 33.3089C228.111 33.4676 228.38 33.6877 228.56 33.9695C228.74 34.2488 228.829 34.5708 228.829 34.9354C228.829 35.2195 228.773 35.4692 228.659 35.6847C228.545 35.8977 228.389 36.0729 228.19 36.2102C227.994 36.3452 227.769 36.4411 227.516 36.4979V36.5689C227.793 36.5807 228.052 36.6589 228.293 36.8033C228.537 36.9477 228.735 37.1501 228.886 37.4105C229.038 37.6686 229.114 37.9763 229.114 38.3338C229.114 38.7197 229.018 39.0642 228.826 39.3672C228.637 39.6679 228.356 39.9058 227.984 40.081C227.613 40.2562 227.155 40.3438 226.61 40.3438H223.503ZM225.04 39.0866H226.294C226.722 39.0866 227.035 39.005 227.231 38.8416C227.428 38.6759 227.526 38.4557 227.526 38.1811C227.526 37.9799 227.478 37.8023 227.381 37.6484C227.284 37.4946 227.145 37.3738 226.965 37.2862C226.788 37.1986 226.576 37.1548 226.329 37.1548H225.04V39.0866ZM225.04 36.1143H226.18C226.391 36.1143 226.578 36.0777 226.741 36.0043C226.907 35.9285 227.037 35.822 227.132 35.6847C227.229 35.5473 227.278 35.3828 227.278 35.1911C227.278 34.9283 227.184 34.7164 226.997 34.5554C226.812 34.3944 226.55 34.3139 226.209 34.3139H225.04V36.1143Z" fill="#1E293B"/>
<path d="M212.377 49.8633C216.442 49.8633 219.737 47.7716 219.737 45.1914C219.737 42.6112 216.442 40.5195 212.377 40.5195C208.313 40.5195 205.018 42.6112 205.018 45.1914C205.018 47.7716 208.313 49.8633 212.377 49.8633Z" fill="#FEF08A" stroke="#FCD34D" stroke-width="1.5"/>
<path d="M210.523 49.6875H208.875L211.386 42.4148H213.367L215.874 49.6875H214.227L212.405 44.0767H212.348L210.523 49.6875ZM210.42 46.8288H214.312V48.0291H210.42V46.8288Z" fill="#1E293B"/>

<!-- Joysticks -->
<path d="M83.9693 83C97.6383 83 108.719 76.2843 108.719 68C108.719 59.7157 97.6383 53 83.9693 53C70.3002 53 59.2193 59.7157 59.2193 68C59.2193 76.2843 70.3002 83 83.9693 83Z" fill="#334155" stroke="#60A5FA" stroke-width="2"/>
<path d="M83.9693 77.1667C92.3226 77.1667 99.0943 73.0626 99.0943 68C99.0943 62.9374 92.3226 58.8333 83.9693 58.8333C75.616 58.8333 68.8443 62.9374 68.8443 68C68.8443 73.0626 75.616 77.1667 83.9693 77.1667Z" fill="#1E293B"/>
<g filter="url(#filter1_f)">
<path d="M81.2193 68.8333C83.4975 68.8333 85.3443 67.714 85.3443 66.3333C85.3443 64.9526 83.4975 63.8333 81.2193 63.8333C78.9411 63.8333 77.0943 64.9526 77.0943 66.3333C77.0943 67.714 78.9411 68.8333 81.2193 68.8333Z" fill="#FCD34D"/>
</g>
<path d="M166.469 83C180.138 83 191.219 76.2843 191.219 68C191.219 59.7157 180.138 53 166.469 53C152.8 53 141.719 59.7157 141.719 68C141.719 76.2843 152.8 83 166.469 83Z" fill="#334155" stroke="#60A5FA" stroke-width="2"/>
<path d="M166.469 77.1667C174.823 77.1667 181.594 73.0626 181.594 68C181.594 62.9374 174.823 58.8333 166.469 58.8333C158.116 58.8333 151.344 62.9374 151.344 68C151.344 73.0626 158.116 77.1667 166.469 77.1667Z" fill="#1E293B"/>
<g filter="url(#filter2_f)">
<path d="M163.719 68.8333C165.997 68.8333 167.844 67.714 167.844 66.3333C167.844 64.9526 165.997 63.8333 163.719 63.8333C161.441 63.8333 159.594 64.9526 159.594 66.3333C159.594 67.714 161.441 68.8333 163.719 68.8333Z" fill="#FCD34D"/>
</g>

<!-- Botones centrales -->
<path d="M111.018 17.752H99.9791C98.4549 17.752 97.2193 18.5363 97.2193 19.5039C97.2193 20.4715 98.4549 21.2559 99.9791 21.2559H111.018C112.542 21.2559 113.778 20.4715 113.778 19.5039C113.778 18.5363 112.542 17.752 111.018 17.752Z" fill="#334155" stroke="#60A5FA" stroke-width="1.5"/>
<g filter="url(#filter3_f)">
<path d="M125.737 23.0078C128.785 23.0078 131.256 21.4391 131.256 19.5039C131.256 17.5688 128.785 16 125.737 16C122.689 16 120.217 17.5688 120.217 19.5039C120.217 21.4391 122.689 23.0078 125.737 23.0078Z" fill="#1E293B" stroke="#FCD34D" stroke-width="2"/>
</g>
<path d="M151.495 17.752H140.456C138.931 17.752 137.696 18.5363 137.696 19.5039C137.696 20.4715 138.931 21.2559 140.456 21.2559H151.495C153.019 21.2559 154.254 20.4715 154.254 19.5039C154.254 18.5363 153.019 17.752 151.495 17.752Z" fill="#334155" stroke="#60A5FA" stroke-width="1.5"/>

<!-- Touchpad -->
<path opacity="0.7" d="M158.374 10H93.9791C92.4549 10 91.2193 10.7844 91.2193 11.752V14.0879C91.2193 15.0555 92.4549 15.8398 93.9791 15.8398H158.374C159.898 15.8398 161.133 15.0555 161.133 14.0879V11.752C161.133 10.7844 159.898 10 158.374 10Z" fill="#1E293B" stroke="#60A5FA" stroke-width="1.5"/>
</g>
</svg>
