<svg width="32" height="32" viewBox="0 0 24 24" xmlns="http://www.w3.org/2000/svg">
  <!-- Fondo del gamepad -->
  <path d="M6 5h12c2.5 0 4 2 4 4v4c0 2-1.5 4-4 4h-3l-1 2h-2l-1-2H8c-2.5 0-4-2-4-4V9c0-2 1.5-4 4-4z" 
        fill="#9b87f5" 
        stroke="#7C3AED" 
        stroke-width="1"/>
  
  <!-- Botones del lado izquierdo (D-pad) -->
  <!-- Arriba -->
  <rect x="7" y="8" width="1.5" height="2" fill="#ffffff" rx="0.3"/>
  <!-- Izquierda -->
  <rect x="6" y="9.5" width="2" height="1.5" fill="#ffffff" rx="0.3"/>
  <!-- Derecha -->
  <rect x="8.5" y="9.5" width="2" height="1.5" fill="#ffffff" rx="0.3"/>
  <!-- Abajo -->
  <rect x="7" y="11" width="1.5" height="2" fill="#ffffff" rx="0.3"/>
  
  <!-- Botones del lado derecho (4 botones) -->
  <circle cx="15" cy="9" r="0.8" fill="#F97316"/>
  <circle cx="17" cy="9" r="0.8" fill="#F97316"/>
  <circle cx="15" cy="11" r="0.8" fill="#F97316"/>
  <circle cx="17" cy="11" r="0.8" fill="#F97316"/>
  
  <!-- Sticks analógicos -->
  <circle cx="9" cy="14" r="1.2" fill="#F97316" stroke="#ffffff" stroke-width="0.3"/>
  <circle cx="15" cy="14" r="1.2" fill="#F97316" stroke="#ffffff" stroke-width="0.3"/>
</svg>
